<?xml version="1.0" encoding="utf-8"?>
<!-- Generator: Adobe Illustrator 26.0.1, SVG Export Plug-In . SVG Version: 6.00 Build 0)  -->
<svg version="1.1" id="Ebene_1" xmlns="http://www.w3.org/2000/svg" xmlns:xlink="http://www.w3.org/1999/xlink" x="0px" y="0px"
	 viewBox="0 0 323.8 322.9" style="enable-background:new 0 0 323.8 322.9;" xml:space="preserve">
<style type="text/css">
	.st0{fill:#426D8F;}
	.st1{fill:#D81E2C;}
</style>
<g>
	<path class="st0" d="M294.3,164.4c-0.7,0-130.6,0.1-130.6,0.1s-1.5,0-2.2,0c-32.4,0-58.8,26.4-58.8,58.8s26.4,58.8,58.8,58.8
		s58.8-26.4,58.8-58.8c0-9.3-1.9-20.1-7.4-25.9h-34.8c7.2,4.7,12.4,12.3,13.7,21.2c0.3,1.5,0.4,3,0.4,4.6c0,12.8-7.8,23.8-18.9,28.5
		l0,0c-0.4,0.2-0.9,0.4-1.3,0.5c-3.3,1.2-6.9,1.9-10.7,1.9c-17,0-30.9-13.8-30.9-30.9c0-2.1,0.2-4.1,0.6-6.1V217
		c0-0.1,0.1-0.2,0.1-0.4c1.2-5.8,4.1-11.1,8.3-15.3c2.8-2.8,6-4.9,9.5-6.4c0.1,0,0.2-0.1,0.3-0.1c0.2-0.1,0.5-0.2,0.7-0.3
		s0.4-0.2,0.7-0.3h0.1c1.7-0.6,3.4-1.1,5.2-1.4c0.2,0,2.9-0.4,4.9-0.5h0.3H211h18.5c2.5,0,4.6,2.1,4.6,4.6c0,0.1,0,0.4,0,0.4
		s-0.1,84.6,0,84.7c0,0,27.5,0,27.8,0c0-0.7,0-84.7,0-84.7c0-2.7,2.5-5,5.2-5c0.1,0,26.8,0,27,0
		C294.3,192.4,294.3,164.7,294.3,164.4z"/>
	<path class="st1" d="M88.7,197.4H60.9v84.3c0,0.1,0,0.3,0,0.4h27.8V197.4z"/>
	<path class="st0" d="M60.9,192.4v-27.8c0.1,0,0.2-0.1,0.3-0.2h79.9c-15.6,4.1-26.5,14.4-34.6,28h-5.1H60.9"/>
</g>
</svg>
